# xmcd CD database file
#
# Track frame offsets:
#	180
#	19853
#	43229
#	63292
#	82470
#	119512
#	133623
#	152227
#	172750
#	189562
#	207703
#
# Disc length: 3150 seconds
#
# Revision: 0
# Processed by: cddbd v1.4PL0 Copyright (c) Steve Scherf et al.
# Submitted via: CDex 1.50beta10
#
DISCID=a20c4c0b
DTITLE=Shake On Shake - Shake it Live at the Cricketers
DYEAR=1995
DGENRE=Blues
TTITLE0=Rock This House
TTITLE1=The River
TTITLE2=Hip Shakin' Woman
TTITLE3=Satisfy My Soul
TTITLE4=I'm Not Running
TTITLE5=She's tuff
TTITLE6=Love Like A Wave
TTITLE7=Hoodoo Man
TTITLE8=Wish You Would
TTITLE9=Automatic
TTITLE10=Baby, What You Want Me To Do
EXTD=YEAR: 1995
EXTT0=
EXTT1=
EXTT2=
EXTT3=
EXTT4=
EXTT5=
EXTT6=
EXTT7=
EXTT8=
EXTT9=
EXTT10=
PLAYORDER=
